<svg width="40" height="55" viewBox="0 0 40 55" fill="none" xmlns="http://www.w3.org/2000/svg">
<path d="M20.8723 3L10.6546 13.8073L4.30319 26.1757M4.30319 26.1757L10.2606 14.2568L20.1277 3L30.367 13.1532L36.5106 23.0856L38 29.045V33.6802L33.3457 30.5901H18.8245L20.1277 33.6802H26.8298L27.7606 32.5766L26.0851 36.5495L32.0426 34.5631L20.1277 39.4189L15.6596 30.5901L13.7979 31.2523L15.5304 35.4459M4.30319 26.1757L3 32.5766L4.30319 37.4324L5.60638 42.0676L8.0266 46.2613L14.3564 50.6757L20.8723 52L26.8298 50.6757L31.2979 48.027L33.3457 45.1577L30.367 42.7297M18.266 42.0676H16.5904L9.14362 30.5901H11.1915L15.5304 35.4459M18.266 42.0676L15.5304 35.4459M18.266 42.0676L16.5904 42.7297L6.16489 32.5766L8.0266 31.2523L18.266 42.7297H30.367M35.5798 42.7297H30.367" stroke="white" stroke-width="4"/>
</svg>
